<mxfile host="app.diagrams.net" agent="Mozilla/5.0 (Windows NT 10.0; Win64; x64) AppleWebKit/537.36 (KHTML, like Gecko) Chrome/127.0.0.0 Safari/537.36" version="24.7.6">
  <diagram name="Seite-1" id="0qBJA2OcskKHXjRreBoT">
    <mxGraphModel dx="2266" dy="877" grid="1" gridSize="10" guides="1" tooltips="1" connect="1" arrows="1" fold="1" page="1" pageScale="1" pageWidth="827" pageHeight="1169" math="0" shadow="0">
      <root>
        <mxCell id="0" />
        <mxCell id="1" parent="0" />
        <mxCell id="yLwDr2I2qwveIQNhpc3Y-11" value="Stage 0" style="swimlane;whiteSpace=wrap;html=1;" parent="1" vertex="1">
          <mxGeometry x="270" y="500" width="310" height="630" as="geometry" />
        </mxCell>
        <mxCell id="yLwDr2I2qwveIQNhpc3Y-12" value="&lt;b&gt;Output&lt;/b&gt;" style="rounded=1;whiteSpace=wrap;html=1;" parent="yLwDr2I2qwveIQNhpc3Y-11" vertex="1">
          <mxGeometry x="40" y="60" width="120" height="60" as="geometry" />
        </mxCell>
        <mxCell id="v9FyfyCyiGlIpM8znwCF-17" style="edgeStyle=orthogonalEdgeStyle;rounded=0;orthogonalLoop=1;jettySize=auto;html=1;" edge="1" parent="yLwDr2I2qwveIQNhpc3Y-11" source="yLwDr2I2qwveIQNhpc3Y-13" target="v9FyfyCyiGlIpM8znwCF-16">
          <mxGeometry relative="1" as="geometry" />
        </mxCell>
        <mxCell id="yLwDr2I2qwveIQNhpc3Y-13" value="&lt;b&gt;Left Join&lt;/b&gt;&lt;div&gt;spill = 1GB&lt;/div&gt;" style="rounded=1;whiteSpace=wrap;html=1;" parent="yLwDr2I2qwveIQNhpc3Y-11" vertex="1">
          <mxGeometry x="40" y="250" width="120" height="60" as="geometry" />
        </mxCell>
        <mxCell id="v9FyfyCyiGlIpM8znwCF-11" style="edgeStyle=orthogonalEdgeStyle;rounded=0;orthogonalLoop=1;jettySize=auto;html=1;" edge="1" parent="yLwDr2I2qwveIQNhpc3Y-11" source="yLwDr2I2qwveIQNhpc3Y-14" target="v9FyfyCyiGlIpM8znwCF-10">
          <mxGeometry relative="1" as="geometry" />
        </mxCell>
        <mxCell id="yLwDr2I2qwveIQNhpc3Y-14" value="&lt;b&gt;Local Exchange&lt;/b&gt;" style="rounded=1;whiteSpace=wrap;html=1;" parent="yLwDr2I2qwveIQNhpc3Y-11" vertex="1">
          <mxGeometry x="160" y="540" width="120" height="60" as="geometry" />
        </mxCell>
        <mxCell id="v9FyfyCyiGlIpM8znwCF-14" style="edgeStyle=orthogonalEdgeStyle;rounded=0;orthogonalLoop=1;jettySize=auto;html=1;entryX=0.5;entryY=1;entryDx=0;entryDy=0;" edge="1" parent="yLwDr2I2qwveIQNhpc3Y-11" source="v9FyfyCyiGlIpM8znwCF-10" target="v9FyfyCyiGlIpM8znwCF-13">
          <mxGeometry relative="1" as="geometry" />
        </mxCell>
        <mxCell id="v9FyfyCyiGlIpM8znwCF-10" value="&lt;b&gt;Aggregate&lt;/b&gt;&lt;div&gt;keys = [partkey]&lt;/div&gt;&lt;div&gt;spill = 1GB&lt;/div&gt;" style="rounded=1;whiteSpace=wrap;html=1;" vertex="1" parent="yLwDr2I2qwveIQNhpc3Y-11">
          <mxGeometry x="160" y="450" width="120" height="60" as="geometry" />
        </mxCell>
        <mxCell id="v9FyfyCyiGlIpM8znwCF-15" style="edgeStyle=orthogonalEdgeStyle;rounded=0;orthogonalLoop=1;jettySize=auto;html=1;entryX=0.75;entryY=1;entryDx=0;entryDy=0;" edge="1" parent="yLwDr2I2qwveIQNhpc3Y-11" source="v9FyfyCyiGlIpM8znwCF-13" target="yLwDr2I2qwveIQNhpc3Y-13">
          <mxGeometry relative="1" as="geometry" />
        </mxCell>
        <mxCell id="v9FyfyCyiGlIpM8znwCF-13" value="&lt;b&gt;Project&lt;/b&gt;" style="rounded=1;whiteSpace=wrap;html=1;" vertex="1" parent="yLwDr2I2qwveIQNhpc3Y-11">
          <mxGeometry x="160" y="360" width="120" height="60" as="geometry" />
        </mxCell>
        <mxCell id="v9FyfyCyiGlIpM8znwCF-18" style="edgeStyle=orthogonalEdgeStyle;rounded=0;orthogonalLoop=1;jettySize=auto;html=1;entryX=0.5;entryY=1;entryDx=0;entryDy=0;" edge="1" parent="yLwDr2I2qwveIQNhpc3Y-11" source="v9FyfyCyiGlIpM8znwCF-16">
          <mxGeometry relative="1" as="geometry">
            <mxPoint x="100" y="120" as="targetPoint" />
          </mxGeometry>
        </mxCell>
        <mxCell id="v9FyfyCyiGlIpM8znwCF-16" value="&lt;b&gt;Filter Project&lt;/b&gt;" style="rounded=1;whiteSpace=wrap;html=1;" vertex="1" parent="yLwDr2I2qwveIQNhpc3Y-11">
          <mxGeometry x="40" y="150" width="120" height="60" as="geometry" />
        </mxCell>
        <mxCell id="yLwDr2I2qwveIQNhpc3Y-15" value="Stage 2" style="swimlane;whiteSpace=wrap;html=1;" parent="1" vertex="1">
          <mxGeometry x="390" y="1180" width="190" height="210" as="geometry" />
        </mxCell>
        <mxCell id="v9FyfyCyiGlIpM8znwCF-2" style="edgeStyle=orthogonalEdgeStyle;rounded=0;orthogonalLoop=1;jettySize=auto;html=1;" edge="1" parent="yLwDr2I2qwveIQNhpc3Y-15" source="yLwDr2I2qwveIQNhpc3Y-16">
          <mxGeometry relative="1" as="geometry">
            <mxPoint x="100" y="110" as="targetPoint" />
          </mxGeometry>
        </mxCell>
        <mxCell id="yLwDr2I2qwveIQNhpc3Y-16" value="&lt;b&gt;Table Scan&lt;/b&gt;" style="rounded=1;whiteSpace=wrap;html=1;" parent="yLwDr2I2qwveIQNhpc3Y-15" vertex="1">
          <mxGeometry x="40" y="140" width="120" height="60" as="geometry" />
        </mxCell>
        <mxCell id="v9FyfyCyiGlIpM8znwCF-1" value="&lt;b&gt;Aggregate&lt;/b&gt;&lt;div&gt;keys = [partkey]&lt;/div&gt;" style="rounded=1;whiteSpace=wrap;html=1;" vertex="1" parent="yLwDr2I2qwveIQNhpc3Y-15">
          <mxGeometry x="40" y="50" width="120" height="60" as="geometry" />
        </mxCell>
        <mxCell id="yLwDr2I2qwveIQNhpc3Y-19" value="Stage 1" style="swimlane;whiteSpace=wrap;html=1;" parent="1" vertex="1">
          <mxGeometry x="40" y="900" width="190" height="130" as="geometry" />
        </mxCell>
        <mxCell id="yLwDr2I2qwveIQNhpc3Y-20" value="&lt;b&gt;Table Scan&lt;/b&gt;" style="rounded=1;whiteSpace=wrap;html=1;" parent="yLwDr2I2qwveIQNhpc3Y-19" vertex="1">
          <mxGeometry x="40" y="40" width="120" height="60" as="geometry" />
        </mxCell>
        <mxCell id="yLwDr2I2qwveIQNhpc3Y-24" style="edgeStyle=orthogonalEdgeStyle;rounded=0;orthogonalLoop=1;jettySize=auto;html=1;entryX=0.5;entryY=1;entryDx=0;entryDy=0;" parent="1" source="yLwDr2I2qwveIQNhpc3Y-21" target="yLwDr2I2qwveIQNhpc3Y-20" edge="1">
          <mxGeometry relative="1" as="geometry" />
        </mxCell>
        <mxCell id="yLwDr2I2qwveIQNhpc3Y-21" value="&lt;b&gt;Part&lt;/b&gt;" style="rounded=1;whiteSpace=wrap;html=1;" parent="1" vertex="1">
          <mxGeometry x="80" y="1060" width="120" height="60" as="geometry" />
        </mxCell>
        <mxCell id="yLwDr2I2qwveIQNhpc3Y-23" style="edgeStyle=orthogonalEdgeStyle;rounded=0;orthogonalLoop=1;jettySize=auto;html=1;entryX=0.5;entryY=1;entryDx=0;entryDy=0;" parent="1" source="yLwDr2I2qwveIQNhpc3Y-22" target="yLwDr2I2qwveIQNhpc3Y-16" edge="1">
          <mxGeometry relative="1" as="geometry" />
        </mxCell>
        <mxCell id="yLwDr2I2qwveIQNhpc3Y-22" value="&lt;b&gt;PartSupp&lt;/b&gt;" style="rounded=1;whiteSpace=wrap;html=1;" parent="1" vertex="1">
          <mxGeometry x="430" y="1420" width="120" height="60" as="geometry" />
        </mxCell>
        <mxCell id="yLwDr2I2qwveIQNhpc3Y-27" style="edgeStyle=orthogonalEdgeStyle;rounded=0;orthogonalLoop=1;jettySize=auto;html=1;entryX=0.25;entryY=1;entryDx=0;entryDy=0;" parent="1" source="yLwDr2I2qwveIQNhpc3Y-20" target="yLwDr2I2qwveIQNhpc3Y-13" edge="1">
          <mxGeometry relative="1" as="geometry">
            <mxPoint x="370" y="1040" as="targetPoint" />
          </mxGeometry>
        </mxCell>
        <mxCell id="yLwDr2I2qwveIQNhpc3Y-35" value="&lt;b&gt;&lt;font style=&quot;font-size: 18px;&quot;&gt;1.68GB&lt;/font&gt;&lt;/b&gt;" style="edgeLabel;html=1;align=center;verticalAlign=middle;resizable=0;points=[];" parent="yLwDr2I2qwveIQNhpc3Y-27" vertex="1" connectable="0">
          <mxGeometry x="0.2078" relative="1" as="geometry">
            <mxPoint x="-69" y="30" as="offset" />
          </mxGeometry>
        </mxCell>
        <mxCell id="v9FyfyCyiGlIpM8znwCF-3" style="edgeStyle=orthogonalEdgeStyle;rounded=0;orthogonalLoop=1;jettySize=auto;html=1;entryX=0.5;entryY=1;entryDx=0;entryDy=0;" edge="1" parent="1" source="v9FyfyCyiGlIpM8znwCF-1" target="yLwDr2I2qwveIQNhpc3Y-14">
          <mxGeometry relative="1" as="geometry" />
        </mxCell>
        <mxCell id="v9FyfyCyiGlIpM8znwCF-19" value="&lt;span style=&quot;font-size: 18px;&quot;&gt;&lt;b&gt;1.68GB&lt;/b&gt;&lt;/span&gt;" style="edgeLabel;html=1;align=center;verticalAlign=middle;resizable=0;points=[];" vertex="1" connectable="0" parent="v9FyfyCyiGlIpM8znwCF-3">
          <mxGeometry x="0.0933" y="-2" relative="1" as="geometry">
            <mxPoint as="offset" />
          </mxGeometry>
        </mxCell>
      </root>
    </mxGraphModel>
  </diagram>
</mxfile>
